{"glyphs":{":":{"x_min":0,"x_max":146,"ha":146,"o":"m 73 -19 q 54 -19 42 -6 q 29 6 29 25 q 29 44 41 57 q 54 70 73 70 q 93 70 105 57 q 118 44 118 25 q 118 6 105 -7 q 92 -19 73 -19 z m 73 299 q 54 299 42 312 q 29 324 29 343 q 29 361 41 375 q 54 388 73 388 q 93 388 105 375 q 118 362 118 343 q 118 324 105 311 q 92 299 73 299 z"},"$":{"x_min":0,"x_max":542,"ha":542,"o":"m 289 -60 l 246 -60 l 246 -12 q 194 -12 162 -3 q 103 13 91 13 q 68 13 68 -5 l 61 -5 l 61 175 l 68 175 q 73 133 87 99 q 101 65 139 40 q 177 15 246 11 l 246 345 q 171 384 128 417 q 86 450 69 482 q 52 515 52 556 q 52 608 88 666 q 125 724 246 734 l 246 784 l 289 784 l 289 734 q 333 729 399 712 q 415 708 428 708 q 444 708 448 725 l 455 725 l 455 551 l 448 551 q 419 690 289 706 l 289 406 q 361 367 404 338 q 447 309 474 269 q 500 229 500 176 q 500 155 495 130 q 490 104 469 73 q 449 42 405 17 q 361 -7 289 -12 z m 289 322 l 289 11 q 361 13 400 52 q 439 90 439 142 q 439 203 398 244 q 356 286 289 322 z m 246 430 l 246 708 q 203 702 172 681 q 142 660 127 633 q 113 605 113 579 q 113 534 144 502 q 176 470 246 430 z"},"?":{"x_min":0,"x_max":302,"ha":302,"o":"m 18 588 l 12 591 q 30 638 59 672 q 88 707 145 707 q 183 707 213 689 q 243 671 259 639 q 276 607 276 570 q 276 525 256 488 q 237 451 183 379 q 155 341 139 312 q 123 283 115 250 q 108 216 110 168 l 103 168 q 100 187 100 222 q 100 269 110 300 q 120 332 149 375 q 185 430 199 461 q 213 493 213 535 q 213 574 197 599 q 181 625 156 637 q 132 649 109 649 q 86 649 60 636 q 34 624 18 588 z m 116 -19 q 97 -19 84 -6 q 72 6 72 25 q 72 44 84 57 q 97 70 116 70 q 136 70 148 57 q 161 44 161 25 q 161 6 148 -7 q 135 -19 116 -19 z"},"<":{"x_min":0,"x_max":549,"ha":549,"o":"m 26 230 l 26 292 l 523 522 l 523 460 l 90 261 l 523 62 l 523 0 z"},"'":{"x_min":0,"x_max":146,"ha":146,"o":"m 30 512 l 30 519 q 61 540 74 570 q 88 600 88 626 q 88 655 78 655 q 53 655 53 655 q 38 658 28 670 q 19 682 19 699 q 19 720 32 730 q 45 740 63 740 q 81 740 95 729 q 110 718 118 698 q 127 679 127 654 q 127 609 101 569 q 74 529 30 512 z"},"=":{"x_min":0,"x_max":549,"ha":549,"o":"m 537 390 l 537 335 l 11 335 l 11 390 z m 537 196 l 537 141 l 11 141 l 11 196 z"},"a":{"x_min":0,"x_max":688,"ha":688,"o":""},"L":{"x_min":0,"x_max":500,"ha":500,"o":"m 37 8 l 47 8 q 73 8 94 29 q 114 49 114 87 l 114 630 q 114 675 91 692 q 68 710 37 711 l 37 719 l 267 719 l 267 711 q 237 710 213 693 q 190 676 190 630 l 190 105 q 190 58 213 40 q 237 22 290 22 l 352 22 q 393 22 417 32 q 441 42 455 62 q 469 82 484 118 l 492 118 l 465 0 l 37 0 z"},"3":{"x_min":0,"x_max":500,"ha":500,"o":"m 55 741 l 62 741 q 67 726 89 726 q 93 726 108 729 q 123 731 125 731 q 166 740 203 740 q 253 740 297 719 q 341 697 368 657 q 395 618 395 566 q 395 539 384 501 q 372 464 342 436 q 306 402 234 385 l 234 383 q 316 377 363 344 q 410 311 427 269 q 445 228 445 190 q 445 146 427 107 q 409 69 376 41 q 344 12 303 -3 q 262 -19 217 -19 q 154 -19 113 5 q 72 29 34 66 l 34 102 q 79 58 119 39 q 160 20 206 20 q 274 20 308 56 q 342 92 350 129 q 358 167 358 194 q 358 256 331 293 q 305 330 276 347 q 267 353 248 357 q 229 362 211 364 q 194 366 179 366 l 113 366 l 113 392 l 149 392 q 234 392 279 438 q 320 479 320 559 q 320 606 304 642 q 288 677 259 697 q 229 717 190 717 q 135 717 108 686 q 80 654 62 611 l 55 611 z"},";":{"x_min":0,"x_max":146,"ha":146,"o":"m 30 -145 l 30 -139 q 31 -139 46 -125 q 62 -111 74 -85 q 87 -60 87 -27 q 87 0 79 0 q 79 0 72 -2 q 64 -4 64 -4 q 46 -4 32 8 q 19 21 19 40 q 19 59 33 71 q 46 84 65 84 q 80 84 95 73 q 109 62 118 42 q 127 23 127 -1 q 127 -50 102 -86 q 77 -123 30 -145 z m 70 299 q 51 299 39 312 q 26 324 26 343 q 26 361 38 375 q 51 388 70 388 q 89 388 102 375 q 115 362 115 343 q 115 324 102 311 q 88 299 70 299 z"},"J":{"x_min":0,"x_max":354,"ha":354,"o":"m 167 60 l 167 631 q 167 708 90 711 l 90 719 l 317 719 l 317 711 q 285 710 263 691 q 241 673 241 631 l 241 41 q 241 -8 228 -43 q 214 -79 192 -99 q 170 -120 145 -128 q 119 -137 93 -137 q 63 -137 40 -128 q 18 -119 2 -105 q -14 -92 -31 -73 l -26 -68 q 15 -101 64 -101 q 131 -101 149 -55 q 167 -8 167 60 z"},"V":{"x_min":0,"x_max":688,"ha":688,"o":"m 677 719 l 677 711 q 649 708 631 692 q 613 677 601 653 q 588 629 572 589 q 569 586 567 577 l 359 -19 l 352 -19 l 107 626 q 107 628 105 632 q 91 673 68 692 q 44 711 10 711 l 10 719 l 246 719 l 246 711 q 216 708 198 699 q 180 690 180 657 q 180 648 188 621 q 189 619 190 616 q 190 613 191 612 l 380 107 l 382 107 l 544 577 q 561 625 561 650 q 561 688 545 699 q 528 709 496 711 l 496 719 z"},"\"":{"x_min":0,"x_max":281,"ha":281,"o":"m 31 512 l 31 519 q 62 540 75 570 q 89 600 89 626 q 89 655 79 655 q 54 655 54 655 q 39 658 29 670 q 20 682 20 699 q 20 720 33 730 q 46 740 64 740 q 82 740 96 729 q 111 718 119 698 q 128 679 128 654 q 128 609 102 569 q 75 529 31 512 z m 167 512 l 167 519 q 197 540 211 570 q 224 601 224 626 q 224 655 214 655 q 207 655 199 655 q 191 654 189 655 q 174 658 164 670 q 155 682 155 699 q 155 719 168 730 q 182 740 199 740 q 227 740 246 716 q 264 691 264 654 q 264 609 238 569 q 211 529 167 512 z"},"7":{"x_min":0,"x_max":552,"ha":552,"o":"m 524 719 l 206 -12 l 135 -12 l 429 665 l 228 665 q 150 665 110 646 q 70 628 47 579 l 39 579 l 61 719 z"},"S":{"x_min":0,"x_max":469,"ha":469,"o":"m 406 581 l 398 581 q 391 633 352 673 q 313 712 250 712 q 208 712 176 692 q 144 673 126 639 q 109 605 109 562 q 109 528 119 502 q 130 476 150 456 q 171 436 199 419 q 227 401 274 375 q 353 332 397 288 q 441 245 441 170 q 441 124 417 81 q 394 39 346 11 q 298 -16 227 -16 q 183 -16 148 -7 q 114 3 79 20 q 64 25 59 25 q 49 25 46 18 q 42 10 37 -14 l 29 -14 l 29 166 l 37 166 q 55 87 105 46 q 156 6 229 6 q 284 6 317 26 q 350 47 362 76 q 375 105 375 135 q 375 195 338 234 q 301 272 226 312 q 174 340 149 356 q 125 372 99 396 q 73 421 58 455 q 43 489 43 533 q 43 584 70 630 q 97 677 146 705 q 195 733 258 733 q 305 733 355 717 q 363 713 376 713 q 392 713 398 735 l 406 735 z"},"}":{"x_min":0,"x_max":302,"ha":302,"o":"m 266 322 l 266 304 q 231 295 213 287 q 195 279 177 260 q 149 231 149 196 q 149 170 157 137 q 170 69 170 45 q 170 3 151 -36 q 132 -76 94 -104 q 56 -133 0 -142 l 0 -123 q 54 -114 81 -81 q 108 -48 108 -11 q 108 15 102 44 q 87 120 87 147 q 87 182 112 229 q 137 276 226 312 q 170 334 129 376 q 88 418 88 482 q 88 506 101 570 q 110 614 110 635 q 110 667 88 700 q 67 734 0 749 l 0 767 q 39 761 71 743 q 103 726 125 700 q 147 675 160 644 q 172 613 172 579 q 172 550 164 517 q 162 501 153 467 q 150 452 150 437 q 150 385 186 357 q 223 329 266 322 z"},"Z":{"x_min":0,"x_max":646,"ha":646,"o":"m 511 692 l 167 692 q 124 692 97 682 q 70 673 54 650 q 38 628 31 588 l 23 588 l 23 719 l 612 719 l 612 705 l 114 27 l 459 27 q 517 27 549 39 q 582 51 596 70 q 610 88 625 120 l 633 120 l 599 0 l 14 0 l 14 15 z"},"x":{"x_min":0,"x_max":729,"ha":729,"o":""},")":{"x_min":0,"x_max":302,"ha":302,"o":"m 4 -108 l 0 -102 q 46 -65 79 -22 q 112 21 134 70 q 155 120 165 181 q 176 242 176 315 q 176 416 156 492 q 137 568 98 627 q 60 687 0 735 l 4 740 q 55 702 86 675 q 118 648 144 617 q 169 586 192 548 q 225 493 241 435 q 257 377 257 316 q 257 169 179 63 q 102 -42 4 -108 z"},"&":{"x_min":0,"x_max":729,"ha":729,"o":"m 703 471 l 703 463 q 667 461 645 448 q 622 435 605 407 q 587 378 569 331 q 548 277 533 245 q 518 213 506 195 q 495 177 485 163 q 488 160 521 130 q 555 100 578 78 q 631 33 661 21 q 690 9 720 8 l 720 0 l 568 0 q 484 67 443 106 q 415 69 358 27 q 301 -15 224 -15 q 183 -15 148 -1 q 113 13 86 40 q 59 66 45 99 q 31 132 31 168 q 31 237 73 292 q 116 346 177 386 l 170 393 q 125 443 100 485 q 75 526 75 572 q 75 616 99 655 q 123 693 165 717 q 207 740 259 740 q 327 740 369 702 q 411 664 411 609 q 411 547 363 499 q 315 451 247 409 q 272 380 325 326 l 396 252 q 438 208 469 179 q 495 219 525 293 q 555 367 555 413 q 555 443 539 453 q 523 462 499 463 l 499 471 z m 234 426 q 286 459 318 496 q 350 532 350 585 q 350 616 335 646 q 321 675 293 693 q 265 711 230 711 q 181 711 156 682 q 130 653 130 614 q 130 587 146 552 q 162 517 186 484 q 210 452 234 426 z m 190 369 q 89 301 89 209 q 89 162 115 122 q 141 83 182 61 q 224 39 266 39 q 303 39 334 52 q 365 65 386 83 q 407 100 428 121 q 386 161 364 183 q 342 206 317 231 q 292 256 265 286 q 238 315 190 369 z"},"_":{"x_min":0,"x_max":500,"ha":500,"o":"m 506 -125 l -6 -125 l -6 -75 l 506 -75 z"},"v":{"x_min":0,"x_max":688,"ha":688,"o":""},"O":{"x_min":0,"x_max":865,"ha":865,"o":"m 812 359 q 812 258 762 171 q 712 84 625 32 q 539 -19 434 -19 q 329 -19 241 32 q 153 84 102 171 q 52 259 52 362 q 52 441 82 510 q 112 580 166 632 q 220 684 289 712 q 358 740 433 740 q 507 740 575 713 q 643 686 697 635 q 750 583 781 513 q 812 443 812 359 z m 726 357 q 726 500 675 582 q 625 663 558 690 q 492 718 433 718 q 388 718 339 703 q 290 688 244 648 q 198 609 168 537 q 138 465 138 360 q 138 267 163 198 q 188 129 231 85 q 274 42 326 22 q 378 3 434 3 q 484 3 536 21 q 587 39 630 79 q 673 119 699 188 q 726 257 726 357 z"},"(":{"x_min":0,"x_max":302,"ha":302,"o":"m 298 740 l 302 735 q 241 685 203 627 q 165 568 145 492 q 126 416 126 315 q 126 170 169 71 q 211 -28 302 -102 l 298 -108 q 238 -68 182 -11 q 126 46 86 130 q 45 214 45 316 q 45 437 110 548 q 131 583 148 605 q 166 628 186 648 q 206 667 232 689 q 258 711 298 740 z"},"C":{"x_min":0,"x_max":719,"ha":719,"o":"m 685 558 l 677 558 q 667 611 627 647 q 587 684 535 701 q 482 718 437 718 q 375 718 321 692 q 266 666 227 618 q 187 570 165 504 q 143 437 143 359 q 143 283 164 219 q 186 154 226 106 q 267 59 321 34 q 375 10 440 10 q 495 10 560 32 q 625 54 678 106 l 678 78 q 613 28 559 4 q 505 -19 425 -19 q 340 -19 270 12 q 200 43 151 96 q 103 148 78 214 q 53 280 53 350 q 53 455 105 545 q 157 635 245 688 q 333 740 437 740 q 501 740 573 721 l 624 707 q 639 704 649 704 q 668 704 674 710 q 681 715 684 730 l 692 730 z"},"W":{"x_min":0,"x_max":1021,"ha":1021,"o":"m 1011 719 l 1011 711 q 989 707 972 695 q 955 683 938 655 q 922 627 904 575 l 702 -19 l 695 -19 l 511 575 l 509 575 l 309 -19 l 302 -19 l 97 636 q 86 671 70 687 q 55 702 42 706 q 29 709 10 711 l 10 719 l 233 719 l 233 711 q 204 709 189 693 q 174 678 174 655 q 174 637 182 611 l 334 125 l 336 125 l 499 611 l 492 633 q 482 665 463 687 q 443 709 402 711 l 402 719 l 632 719 l 632 711 q 593 710 581 691 q 570 671 570 655 q 570 634 577 611 l 727 125 l 729 125 l 882 575 q 889 593 894 618 q 900 642 900 659 q 900 692 885 701 q 871 709 839 711 l 839 719 z"},"A":{"x_min":0,"x_max":688,"ha":688,"o":"m 364 728 l 579 112 q 596 64 611 42 q 626 21 640 15 q 654 10 676 8 l 676 0 l 441 0 l 441 8 q 477 8 497 15 q 516 21 516 52 q 516 68 507 96 q 505 100 505 102 l 441 293 l 192 293 l 135 116 q 123 80 123 58 q 123 28 138 18 q 153 8 181 8 l 181 0 l 12 0 l 12 8 q 48 11 70 35 q 92 60 108 109 l 311 728 z m 200 319 l 429 319 l 312 660 l 310 660 z"},"f":{"x_min":0,"x_max":510,"ha":510,"o":""},"Q":{"x_min":0,"x_max":865,"ha":865,"o":"m 840 -9 l 851 -16 q 804 -70 759 -104 q 714 -137 660 -137 q 643 -137 626 -134 q 609 -131 583 -123 q 557 -114 522 -97 q 462 -69 357 -15 q 356 -14 345 -9 q 304 4 285 11 q 266 18 236 35 q 206 53 175 81 q 145 109 118 148 q 98 178 83 214 q 67 250 60 288 q 52 326 52 362 q 52 469 105 556 q 158 643 246 692 q 333 740 434 740 q 511 740 581 711 q 650 682 702 629 q 754 577 783 508 q 812 438 812 361 q 812 285 781 212 q 751 139 693 84 q 667 59 645 44 q 623 29 602 19 q 581 9 559 2 q 536 -5 515 -10 l 515 -12 q 518 -12 536 -22 q 601 -59 631 -67 q 661 -75 696 -75 q 739 -75 766 -62 q 793 -48 834 -13 q 835 -13 837 -11 q 839 -9 840 -9 z m 726 356 q 726 463 697 535 q 667 607 622 647 q 577 687 528 702 q 479 718 433 718 q 385 718 336 702 q 286 686 240 645 q 195 604 167 534 q 138 464 138 364 q 138 266 164 195 q 190 124 235 80 q 263 53 296 36 q 330 19 365 11 q 401 4 436 4 q 498 4 552 27 q 606 50 643 93 q 726 189 726 356 z"},"w":{"x_min":0,"x_max":1021,"ha":1021,"o":""},"-":{"x_min":0,"x_max":313,"ha":313,"o":"m 27 377 l 285 377 l 285 337 l 27 337 z"},"E":{"x_min":0,"x_max":510,"ha":510,"o":"m 35 711 l 35 719 l 464 719 l 464 606 l 457 606 q 457 697 336 697 l 186 697 l 186 370 l 318 370 q 357 370 388 383 q 418 396 423 441 l 430 441 l 430 278 l 423 278 q 418 306 406 321 q 394 335 382 340 q 370 345 361 345 q 343 348 324 348 l 186 348 l 186 93 q 186 64 197 43 q 208 22 248 22 l 355 22 q 394 22 418 33 q 443 44 458 64 q 472 84 482 113 l 489 113 l 464 0 l 35 0 l 35 8 l 45 8 q 68 8 90 26 q 112 45 112 87 l 112 629 q 112 662 97 687 q 82 711 45 711 z"},"s":{"x_min":0,"x_max":469,"ha":469,"o":""},">":{"x_min":0,"x_max":549,"ha":549,"o":"m 523 292 l 523 230 l 26 0 l 26 62 l 459 261 l 26 460 l 26 522 z"},"l":{"x_min":0,"x_max":500,"ha":500,"o":""},"8":{"x_min":0,"x_max":542,"ha":542,"o":"m 326 382 l 340 373 q 382 346 401 333 q 420 320 442 297 q 464 275 479 243 q 493 212 493 174 q 493 125 466 80 q 438 35 385 8 q 332 -19 256 -19 q 185 -19 138 7 q 91 33 70 71 q 49 108 49 147 q 49 193 71 230 q 94 267 134 297 q 173 326 228 352 q 138 404 105 450 q 73 497 73 548 q 73 594 96 638 q 119 682 167 711 q 215 740 285 740 q 347 740 392 716 q 437 691 459 653 q 481 614 481 571 q 481 516 454 477 q 426 438 392 417 q 358 396 326 382 z m 236 435 l 293 401 q 294 400 294 400 q 295 400 298 398 q 301 397 304 395 q 340 414 363 435 q 386 457 398 487 q 410 517 410 561 q 410 638 371 676 q 332 715 276 715 q 242 715 211 700 q 180 686 161 655 q 141 625 141 579 q 141 546 158 509 q 176 471 236 435 z m 250 340 q 217 321 190 299 q 163 276 144 240 q 125 203 125 151 q 125 84 160 42 q 196 0 268 0 q 342 0 383 42 q 424 83 424 146 q 424 191 405 222 q 387 253 356 275 q 325 297 257 336 q 256 337 255 337 q 253 338 252 338 q 251 339 250 340 z"},"\\":{"x_min":0,"x_max":278,"ha":278,"o":"m 1 677 l 62 677 l 281 -15 l 218 -15 z"},"e":{"x_min":0,"x_max":510,"ha":510,"o":""},"b":{"x_min":0,"x_max":573,"ha":573,"o":""},"%":{"x_min":0,"x_max":865,"ha":865,"o":"m 317 542 q 317 585 302 626 q 288 667 261 693 q 235 718 198 718 q 142 718 111 660 q 81 602 81 543 q 81 499 96 458 q 111 418 138 393 q 166 368 199 368 q 233 368 260 393 q 287 418 302 459 q 317 500 317 542 z m 378 542 q 378 487 353 441 q 328 396 287 371 q 246 346 200 346 q 158 346 115 370 q 73 393 47 438 q 20 482 20 543 q 20 607 48 652 q 75 696 117 718 q 159 740 200 740 q 244 740 285 716 q 326 692 352 647 q 378 602 378 542 z m 661 740 l 245 -5 l 211 -5 l 627 740 z m 844 186 q 844 131 819 85 q 793 40 752 15 q 711 -10 665 -10 q 623 -10 581 14 q 539 37 512 82 q 486 126 486 186 q 486 250 513 295 q 541 340 583 362 q 625 384 666 384 q 709 384 751 360 q 792 336 818 291 q 844 246 844 186 z m 783 186 q 783 220 776 250 q 768 280 753 306 q 738 331 715 346 q 693 362 664 362 q 625 362 599 333 q 572 304 560 263 q 547 223 547 187 q 547 143 562 102 q 578 62 605 37 q 632 12 665 12 q 699 12 726 37 q 753 62 768 103 q 783 145 783 186 z"},"m":{"x_min":0,"x_max":854,"ha":854,"o":""},"#":{"x_min":0,"x_max":500,"ha":500,"o":"m 207 466 l 332 466 l 360 673 l 407 673 l 379 466 l 481 466 l 475 420 l 372 420 l 348 238 l 451 238 l 445 192 l 341 192 l 313 -16 l 266 -16 l 294 192 l 170 192 l 141 -16 l 94 -16 l 123 192 l 20 192 l 26 238 l 129 238 l 154 420 l 54 420 l 60 466 l 160 466 l 189 673 l 236 673 z m 325 420 l 201 420 l 176 238 l 301 238 z"},",":{"x_min":0,"x_max":146,"ha":146,"o":"m 30 -145 l 30 -139 q 31 -139 46 -125 q 62 -111 74 -85 q 87 -60 87 -27 q 87 0 79 0 q 79 0 72 -2 q 64 -4 64 -4 q 46 -4 32 8 q 19 21 19 40 q 19 59 33 71 q 46 84 65 84 q 80 84 95 73 q 109 62 118 42 q 127 23 127 -1 q 127 -50 102 -86 q 77 -123 30 -145 z"},"n":{"x_min":0,"x_max":813,"ha":813,"o":""},"h":{"x_min":0,"x_max":781,"ha":781,"o":""},"z":{"x_min":0,"x_max":646,"ha":646,"o":""},"B":{"x_min":0,"x_max":573,"ha":573,"o":"m 304 0 l 35 0 l 35 8 l 45 8 q 72 8 92 28 q 112 47 112 87 l 112 630 q 112 668 94 690 q 75 711 44 711 l 35 711 l 35 719 l 270 719 q 316 719 355 706 q 395 692 422 669 q 449 645 463 615 q 478 585 478 550 q 478 485 436 444 q 394 404 323 385 l 323 383 q 355 379 385 373 q 415 366 439 354 q 463 341 484 322 q 503 304 516 283 q 529 262 536 238 q 543 213 543 187 q 543 131 514 90 q 485 50 448 29 q 396 0 304 0 z m 186 389 l 233 389 q 291 389 315 401 q 331 409 347 422 q 364 436 380 465 q 395 495 395 536 q 395 568 385 597 q 375 626 355 649 q 335 671 309 684 q 282 697 250 697 q 222 697 186 686 z m 260 367 l 186 367 l 186 108 q 186 82 191 65 q 196 47 219 35 q 242 22 290 22 q 389 22 431 88 q 460 133 460 190 q 460 231 446 264 q 431 297 406 320 q 381 342 343 354 q 305 367 260 367 z"},"K":{"x_min":0,"x_max":667,"ha":667,"o":"m 630 719 l 630 711 q 600 709 576 704 q 553 698 530 677 q 513 661 507 655 q 500 650 493 643 l 248 401 l 541 70 q 575 32 599 22 q 624 12 661 8 l 661 0 l 506 0 l 184 364 l 184 87 q 184 10 261 8 l 261 0 l 33 0 l 33 8 q 55 9 71 16 q 88 23 99 40 q 110 58 110 87 l 110 633 q 110 678 87 694 q 64 710 33 711 l 33 719 l 261 719 l 261 711 q 184 708 184 633 l 184 367 l 460 643 q 460 642 462 646 q 485 667 485 682 q 485 699 471 704 q 458 708 431 711 l 431 719 z"},"R":{"x_min":0,"x_max":656,"ha":656,"o":"m 44 709 l 34 709 l 34 719 l 283 719 q 343 719 385 701 q 427 682 450 654 q 473 625 483 593 q 493 562 493 531 q 493 492 477 456 q 460 420 427 394 q 393 368 342 359 l 342 357 q 406 326 461 233 l 526 123 q 570 49 596 30 q 623 10 649 8 l 649 0 l 518 0 q 510 11 502 21 q 495 31 487 42 q 482 49 472 64 q 463 79 461 81 l 375 223 q 349 267 322 294 q 295 321 271 333 q 248 344 229 347 q 210 350 185 350 l 185 87 q 185 10 263 8 l 263 0 l 34 0 l 34 8 q 56 9 72 16 q 89 23 100 40 q 111 58 111 87 l 111 631 q 111 674 90 691 q 69 709 44 709 z m 185 369 l 226 369 q 291 369 332 388 q 373 406 392 441 q 410 475 410 525 q 410 566 394 606 q 377 646 337 673 q 297 700 230 700 q 203 700 185 696 z"},"T":{"x_min":0,"x_max":667,"ha":667,"o":"m 650 579 l 642 579 q 637 649 601 670 q 565 691 513 691 l 370 691 l 370 87 q 370 10 448 8 l 448 0 l 219 0 l 219 8 q 251 9 274 27 q 296 44 296 87 l 296 691 l 153 691 q 101 691 65 670 q 30 649 24 579 l 16 579 l 16 755 l 24 755 q 32 743 38 737 q 43 731 53 727 q 62 723 74 721 q 87 719 104 719 l 570 719 q 616 719 642 755 l 650 755 z"},"P":{"x_min":0,"x_max":542,"ha":542,"o":"m 38 711 l 38 719 l 274 719 q 333 719 378 703 q 423 687 453 659 q 483 631 498 596 q 513 562 513 523 q 513 485 499 450 q 485 416 456 388 q 426 361 377 345 q 329 329 266 329 q 246 329 189 335 l 189 87 q 189 10 267 8 l 267 0 l 38 0 l 38 8 q 72 9 94 27 q 115 45 115 87 l 115 631 q 115 656 107 672 q 100 689 89 696 q 79 703 66 707 q 53 710 48 711 z m 189 694 l 189 355 q 227 348 263 348 q 333 348 382 384 q 430 420 430 517 q 430 597 387 649 q 345 700 258 700 q 224 700 189 694 z"},"|":{"x_min":0,"x_max":200,"ha":200,"o":"m 65 673 l 135 673 l 135 -177 l 65 -177 z"},"t":{"x_min":0,"x_max":667,"ha":667,"o":""},"M":{"x_min":0,"x_max":854,"ha":854,"o":"m 799 719 l 799 711 q 778 708 770 707 q 761 705 750 697 q 733 684 729 673 q 725 662 724 634 q 723 629 724 625 l 749 91 q 750 57 765 33 q 780 8 831 8 l 831 0 l 598 0 l 598 8 q 644 13 660 34 q 676 56 674 102 l 649 655 l 647 655 l 393 0 l 153 631 l 151 631 l 125 121 q 123 79 130 56 q 137 33 153 23 q 168 13 199 8 l 199 0 l 18 0 l 18 8 q 53 8 71 24 q 89 41 94 65 q 100 89 103 131 l 132 658 q 132 661 126 669 q 120 676 112 684 q 103 691 95 696 q 79 706 66 708 q 54 709 32 711 l 32 719 l 199 719 l 422 131 l 648 719 z"},"g":{"x_min":0,"x_max":781,"ha":781,"o":""},"j":{"x_min":0,"x_max":354,"ha":354,"o":""},"i":{"x_min":0,"x_max":302,"ha":302,"o":""},"y":{"x_min":0,"x_max":688,"ha":688,"o":""},"@":{"x_min":0,"x_max":832,"ha":832,"o":"m 464 80 q 436 40 403 19 q 371 -1 343 -1 q 284 -1 244 52 q 196 116 196 218 q 196 300 230 378 q 265 456 312 492 q 360 529 405 529 q 438 529 470 507 q 502 484 525 439 l 538 515 l 610 515 l 552 188 q 541 120 541 112 q 541 98 549 89 q 557 80 568 80 q 590 80 629 114 q 669 148 696 213 q 723 278 723 351 q 723 438 685 508 q 647 579 581 618 q 515 658 438 658 q 345 658 271 608 q 196 558 149 460 q 103 361 103 235 q 103 116 145 32 q 187 -51 264 -95 q 342 -138 449 -138 q 545 -138 618 -98 q 691 -58 729 9 l 802 9 q 778 -50 723 -104 q 668 -158 602 -184 q 535 -210 449 -210 q 322 -210 234 -160 q 146 -109 94 -10 q 43 89 43 228 q 43 376 100 496 q 156 616 241 673 q 327 729 441 729 q 537 729 614 682 q 690 635 736 546 q 782 457 782 349 q 782 203 697 92 q 625 -2 541 -2 q 501 -2 484 18 q 467 38 464 80 z m 270 212 q 270 145 297 108 q 323 71 356 71 q 385 71 419 99 q 453 128 478 188 q 502 249 502 316 q 502 384 475 420 q 447 457 409 457 q 379 457 349 431 q 319 406 294 340 q 270 275 270 212 z"},".":{"x_min":0,"x_max":146,"ha":146,"o":"m 72 -19 q 53 -19 41 -6 q 28 6 28 25 q 28 44 40 57 q 53 70 72 70 q 91 70 104 57 q 117 44 117 25 q 117 6 104 -7 q 90 -19 72 -19 z"},"p":{"x_min":0,"x_max":542,"ha":542,"o":""},"X":{"x_min":0,"x_max":729,"ha":729,"o":"m 677 719 l 677 711 q 652 708 629 697 q 605 685 574 645 q 539 603 534 595 l 381 386 l 563 114 q 597 63 625 40 q 652 18 673 13 q 693 8 719 8 l 719 0 l 448 0 l 448 8 q 483 8 493 24 q 504 40 504 53 q 504 73 484 104 l 338 324 l 191 121 q 163 83 163 55 q 163 41 175 24 q 187 7 225 8 l 225 0 l 10 0 l 10 8 q 73 6 117 60 q 147 96 150 100 l 325 342 l 147 611 q 106 674 78 691 q 50 708 15 711 l 15 719 l 274 719 l 274 711 q 239 709 226 696 q 214 682 214 666 q 214 640 239 601 l 369 405 l 513 601 q 544 645 544 669 q 544 682 534 695 q 524 709 489 711 l 489 719 z"},"*":{"x_min":0,"x_max":427,"ha":427,"o":"m 149 485 l 105 443 q 98 436 85 427 q 73 419 63 419 q 52 419 41 429 q 31 439 31 452 q 31 469 49 479 q 67 489 120 504 q 167 519 194 532 q 191 538 194 544 q 177 554 157 560 q 138 567 82 582 q 31 595 31 624 q 31 637 40 647 q 49 657 61 657 q 71 657 82 651 q 93 644 117 620 q 162 574 198 553 q 203 557 209 558 q 201 615 185 675 q 185 679 182 689 q 180 699 180 706 q 180 719 188 729 q 196 740 214 740 q 229 740 237 730 q 245 720 245 706 q 245 689 241 672 l 227 622 q 218 584 218 558 q 223 557 228 553 q 255 569 303 616 q 342 656 362 656 q 371 656 383 648 q 394 641 394 623 q 394 608 384 600 q 373 592 344 583 q 268 562 232 544 q 234 538 232 532 q 271 515 343 494 q 395 479 395 451 q 395 437 384 428 q 373 419 363 419 q 350 419 333 432 q 317 445 282 480 q 252 510 228 524 q 223 520 218 519 q 218 493 227 461 q 239 415 243 398 q 246 381 246 367 q 246 356 238 345 q 230 334 213 334 q 200 334 191 343 q 182 353 182 368 q 182 381 187 406 q 188 409 192 427 q 197 445 199 453 q 207 486 209 519 q 204 520 198 524 q 174 509 149 485 z"},"Y":{"x_min":0,"x_max":688,"ha":688,"o":"m 677 719 l 677 711 q 645 710 619 696 q 594 681 580 665 q 566 649 550 627 l 382 374 l 382 86 q 382 47 405 28 q 428 9 461 8 l 461 0 l 233 0 l 233 8 q 268 9 288 28 q 308 46 308 86 l 308 362 l 125 636 q 96 681 73 695 q 49 710 10 711 l 10 719 l 265 719 l 265 711 q 226 709 215 694 q 204 679 204 665 q 204 649 223 621 l 373 399 l 506 599 q 536 644 536 668 q 536 685 528 694 q 520 703 512 706 q 503 709 494 711 l 494 719 z"},"c":{"x_min":0,"x_max":719,"ha":719,"o":""},"!":{"x_min":0,"x_max":167,"ha":167,"o":"m 87 170 l 81 170 q 79 187 75 228 q 72 268 70 287 q 70 298 60 409 q 51 521 46 566 q 46 566 43 591 q 41 617 41 632 q 41 708 83 708 q 122 708 122 640 q 122 625 120 600 q 119 576 118 564 q 111 499 108 429 q 107 429 104 386 q 101 344 99 322 q 97 300 96 285 q 89 207 87 170 z m 83 -19 q 64 -19 52 -6 q 39 6 39 25 q 39 44 52 57 q 64 70 83 70 q 103 70 115 57 q 128 44 128 25 q 128 6 115 -7 q 102 -19 83 -19 z"},"/":{"x_min":0,"x_max":313,"ha":313,"o":"m 278 719 l 57 0 l 34 0 l 255 719 z"},"[":{"x_min":0,"x_max":302,"ha":302,"o":"m 91 719 l 302 719 l 302 710 l 242 710 q 187 710 171 684 q 155 658 155 624 l 155 0 q 155 -50 179 -68 q 204 -85 247 -85 l 302 -85 l 302 -93 l 91 -93 z"},"6":{"x_min":0,"x_max":573,"ha":573,"o":"m 494 740 l 494 723 q 448 715 406 701 q 364 688 317 655 q 270 623 231 569 q 184 503 163 433 q 141 362 138 274 l 140 272 q 158 310 199 344 q 241 378 316 378 q 376 378 423 352 q 469 325 494 281 q 518 236 518 185 q 518 144 502 106 q 486 69 455 41 q 424 12 382 -3 q 340 -19 291 -19 q 229 -19 183 4 q 137 27 108 68 q 79 108 65 156 q 52 205 52 255 q 52 280 58 321 q 63 361 79 410 q 94 458 125 511 q 155 564 203 612 q 271 680 346 706 q 420 731 494 740 z m 138 236 q 137 181 154 127 q 171 73 208 38 q 245 3 302 3 q 359 3 399 44 q 439 84 439 162 q 439 210 419 252 q 400 293 365 318 q 331 343 287 343 q 246 343 205 318 q 164 294 138 236 z"},"r":{"x_min":0,"x_max":656,"ha":656,"o":""},"2":{"x_min":0,"x_max":563,"ha":563,"o":"m 510 0 l 40 0 q 64 21 118 73 q 171 126 220 179 q 269 231 290 261 q 356 351 378 406 q 400 461 400 507 q 400 548 386 582 q 372 615 349 636 q 327 657 297 668 q 267 679 236 679 q 208 679 177 669 q 145 658 115 631 q 86 604 70 558 l 55 558 q 63 598 88 639 q 114 681 161 710 q 208 740 274 740 q 338 740 384 712 q 431 684 454 639 q 478 594 478 543 q 478 482 448 419 q 419 356 372 298 q 325 241 273 191 q 221 141 151 79 l 135 65 l 452 65 q 482 65 500 77 q 519 89 533 116 l 541 116 z"},"{":{"x_min":0,"x_max":302,"ha":302,"o":"m 36 303 l 36 321 q 76 332 92 339 q 108 346 124 365 q 152 396 152 428 q 152 454 145 488 q 131 559 131 579 q 131 610 141 640 q 151 670 173 696 q 194 723 227 742 q 261 761 302 767 l 302 747 q 265 741 240 724 q 216 707 205 683 q 193 660 193 636 q 193 621 200 580 q 208 534 211 516 q 214 497 214 477 q 214 443 188 396 q 163 348 75 313 q 108 300 140 278 q 171 255 192 220 q 213 186 213 143 q 213 120 200 55 q 191 12 191 -11 q 191 -42 213 -75 q 234 -108 302 -125 l 302 -142 q 223 -127 177 -75 q 130 -22 130 46 q 130 74 137 108 q 146 139 148 157 q 152 170 152 188 q 152 223 134 248 q 115 272 89 286 q 62 299 36 303 z"},"9":{"x_min":0,"x_max":563,"ha":563,"o":"m 69 -19 l 69 -2 q 114 6 156 19 q 199 33 246 65 q 293 98 332 152 q 379 217 400 288 q 422 360 425 447 l 423 449 q 404 411 364 377 q 323 343 247 343 q 156 343 100 400 q 45 457 45 536 q 45 578 61 615 q 78 652 108 680 q 138 709 181 725 q 223 740 272 740 q 335 740 381 717 q 427 693 456 654 q 484 614 498 566 q 511 518 511 466 q 511 441 506 403 q 501 366 485 315 q 469 264 438 210 q 407 156 360 109 q 312 61 257 34 q 203 7 161 -3 q 119 -13 69 -19 z m 425 485 q 426 540 409 594 q 392 648 355 683 q 318 718 261 718 q 203 718 163 677 q 124 637 124 559 q 124 511 144 469 q 163 427 198 403 q 232 378 276 378 q 317 378 359 403 q 400 427 425 485 z"}," ":{"x_min":0,"x_max":333,"ha":333,"o":""},"I":{"x_min":0,"x_max":302,"ha":302,"o":"m 265 719 l 265 711 q 233 711 210 693 q 188 675 188 633 l 188 87 q 188 45 212 27 q 236 8 265 8 l 265 0 l 37 0 l 37 8 q 68 8 91 26 q 114 44 114 87 l 114 633 q 114 678 91 694 q 68 711 37 711 l 37 719 z"},"H":{"x_min":0,"x_max":781,"ha":781,"o":"m 597 390 l 597 631 q 597 666 578 688 q 559 711 519 711 l 519 719 l 748 719 l 748 711 q 708 711 689 689 q 671 667 671 631 l 671 87 q 671 8 748 8 l 748 0 l 519 0 l 519 8 q 556 8 576 28 q 597 47 597 86 l 597 368 l 185 368 l 185 87 q 185 49 206 29 q 228 8 263 8 l 263 0 l 34 0 l 34 8 q 71 8 91 29 q 111 49 111 87 l 111 631 q 111 711 34 711 l 34 719 l 263 719 l 263 711 q 223 711 204 689 q 185 667 185 631 l 185 390 z"},"4":{"x_min":0,"x_max":635,"ha":635,"o":"m 413 738 l 413 333 l 608 333 l 608 289 l 413 289 l 413 87 q 413 43 436 25 q 458 8 489 7 l 489 0 l 262 0 l 262 7 q 294 8 317 25 q 339 43 339 87 l 339 289 l 19 289 l 386 738 z m 91 333 l 339 333 l 339 637 l 337 637 z"},"~":{"x_min":0,"x_max":520,"ha":520,"o":"m 510 346 l 538 346 q 535 269 497 229 q 460 188 406 188 q 380 188 351 197 q 322 205 223 247 q 152 276 120 276 q 87 276 65 256 q 42 236 34 189 l 6 189 q 10 269 46 308 q 82 347 133 347 q 159 347 184 340 q 233 326 320 289 q 367 268 392 261 q 406 257 423 257 q 458 257 482 280 q 505 303 510 346 z"},"D":{"x_min":0,"x_max":781,"ha":781,"o":"m 37 711 l 37 719 l 314 719 q 372 719 421 709 q 470 699 509 683 q 548 666 576 646 q 604 626 624 606 q 658 572 682 530 q 706 488 718 442 q 730 396 730 346 q 730 297 718 252 q 707 208 685 170 q 663 132 632 102 q 602 71 561 46 q 526 25 481 13 q 437 0 360 0 l 37 0 l 37 8 l 47 8 q 81 8 97 33 q 114 59 114 87 l 114 630 q 114 657 105 676 q 96 694 81 703 q 65 711 47 711 z m 188 685 l 188 115 q 188 73 201 53 q 215 34 243 28 q 271 22 326 22 q 404 22 458 37 q 512 53 562 106 q 599 146 622 203 q 644 260 644 341 q 644 405 626 468 q 608 530 571 579 q 529 634 464 666 q 399 697 307 697 q 260 697 188 685 z"},"^":{"x_min":0,"x_max":581,"ha":581,"o":"m 72 325 l 272 676 l 312 676 l 510 325 l 432 325 l 288 575 l 146 325 z"},"0":{"x_min":0,"x_max":667,"ha":667,"o":"m 626 359 q 626 277 602 208 q 579 140 537 89 q 495 37 442 9 q 389 -19 333 -19 q 281 -19 229 7 q 177 32 134 81 q 91 130 65 201 q 40 271 40 359 q 40 481 85 568 q 129 655 198 698 q 266 740 333 740 q 405 740 473 694 q 541 647 583 561 q 626 474 626 359 z m 543 359 q 543 444 520 526 q 496 607 448 658 q 401 710 333 710 q 266 710 218 653 q 170 596 146 513 q 123 430 123 359 q 123 276 147 196 q 170 116 218 63 q 266 11 333 11 q 389 11 437 59 q 485 107 514 188 q 543 268 543 359 z"},"F":{"x_min":0,"x_max":510,"ha":510,"o":"m 34 711 l 34 719 l 466 719 l 466 610 l 458 610 q 455 644 433 670 q 412 697 359 697 l 186 697 l 186 371 l 347 371 q 393 371 410 390 q 426 409 431 442 l 439 442 l 439 279 l 431 279 q 428 310 411 329 q 394 349 347 349 l 186 349 l 186 87 q 186 51 207 30 q 227 8 256 8 l 266 8 l 266 0 l 34 0 l 34 8 l 44 8 q 73 8 93 30 q 112 52 112 87 l 112 631 q 112 677 91 694 q 70 711 44 711 z"},"`":{"x_min":0,"x_max":333,"ha":333,"o":"m 133 947 l 229 784 l 211 784 l 72 947 z"},"k":{"x_min":0,"x_max":667,"ha":667,"o":""},"u":{"x_min":0,"x_max":781,"ha":781,"o":""},"]":{"x_min":0,"x_max":302,"ha":302,"o":"m 211 719 l 211 -93 l 0 -93 l 0 -85 l 55 -85 q 104 -85 125 -66 q 147 -46 147 0 l 147 624 q 147 648 141 666 q 136 684 117 697 q 98 710 60 710 l 0 710 l 0 719 z"},"U":{"x_min":0,"x_max":781,"ha":781,"o":"m 746 0 l 595 0 l 595 119 l 593 121 q 562 48 499 15 q 437 -19 369 -19 q 292 -19 231 18 q 170 54 141 108 q 121 146 115 187 q 110 229 110 273 l 110 631 q 110 663 97 685 q 84 707 35 711 l 35 719 l 261 719 l 261 711 q 211 705 198 682 q 184 659 184 631 l 184 279 q 184 171 206 120 q 229 65 276 35 q 323 4 383 4 q 408 4 442 13 q 476 21 506 42 q 595 103 595 238 l 595 631 q 595 661 582 684 q 568 707 517 711 l 517 719 l 747 719 l 747 711 q 697 708 683 683 q 669 658 669 632 l 669 87 q 669 59 678 42 q 688 26 705 19 q 722 12 746 8 z"},"o":{"x_min":0,"x_max":865,"ha":865,"o":""},"N":{"x_min":0,"x_max":813,"ha":813,"o":"m 781 719 l 781 711 q 753 708 738 700 q 722 693 713 673 q 704 652 704 613 l 704 -18 l 699 -18 l 147 598 l 147 156 q 147 101 151 74 q 156 47 164 35 q 182 10 227 8 l 227 0 l 47 0 l 47 8 q 77 9 94 21 q 111 32 118 63 q 125 93 125 155 l 125 624 l 101 651 q 69 687 50 697 q 31 706 3 711 l 3 719 l 138 719 l 682 110 l 682 574 q 682 626 678 652 q 674 678 656 694 q 638 709 600 711 l 600 719 z"},"+":{"x_min":0,"x_max":549,"ha":549,"o":"m 247 533 l 302 533 l 302 298 l 539 298 l 539 243 l 302 243 l 302 0 l 247 0 l 247 243 l 10 243 l 10 298 l 247 298 z"},"G":{"x_min":0,"x_max":781,"ha":781,"o":"m 694 570 l 686 570 q 670 640 603 679 q 536 718 449 718 q 404 718 353 704 q 301 690 252 653 q 204 617 171 547 q 139 478 139 372 q 139 204 218 104 q 296 3 469 3 q 538 3 570 12 q 602 21 611 38 q 620 54 620 81 l 620 213 q 620 260 600 275 q 580 290 539 295 l 539 303 l 773 303 l 773 295 q 741 292 723 281 q 706 271 700 254 q 694 237 694 210 l 694 10 q 586 -19 472 -19 q 413 -19 355 -9 q 298 0 235 34 q 173 68 125 134 q 53 233 53 358 q 53 431 80 500 q 107 568 158 623 q 209 677 283 709 q 357 740 447 740 q 481 740 515 736 q 548 731 614 717 q 640 711 651 711 q 675 711 686 735 l 694 735 z"},"q":{"x_min":0,"x_max":865,"ha":865,"o":""},"d":{"x_min":0,"x_max":781,"ha":781,"o":""},"1":{"x_min":0,"x_max":302,"ha":302,"o":"m 115 86 l 115 568 q 115 616 113 626 q 110 637 97 637 q 88 637 35 619 l 35 627 q 66 643 87 656 q 108 669 128 688 q 148 708 173 740 l 189 740 l 189 86 q 189 44 208 26 q 228 8 268 8 l 268 0 l 35 0 l 35 8 q 115 8 115 86 z"},"5":{"x_min":0,"x_max":500,"ha":500,"o":"m 466 719 l 456 665 l 210 665 l 159 369 q 196 376 229 376 q 285 376 331 351 q 378 326 405 282 q 431 238 431 188 q 431 134 404 86 q 377 39 326 10 q 275 -19 210 -19 q 157 -19 118 -1 q 79 17 33 54 l 33 90 q 66 62 102 43 q 137 24 194 24 q 247 24 280 47 q 314 71 329 107 q 344 144 344 183 q 344 231 325 269 q 306 307 270 329 q 234 350 187 350 q 160 350 139 345 q 118 339 81 325 l 149 719 z"}}}
